<?xml version="1.0" encoding="UTF-8" standalone="no"?>
<svg
   xmlns:dc="http://purl.org/dc/elements/1.1/"
   xmlns:cc="http://creativecommons.org/ns#"
   xmlns:rdf="http://www.w3.org/1999/02/22-rdf-syntax-ns#"
   xmlns:svg="http://www.w3.org/2000/svg"
   xmlns="http://www.w3.org/2000/svg"
   viewBox="0 0 26.666668 34.666668"
   height="34.666668"
   width="26.666668"
   xml:space="preserve"
   id="svg2"
   version="1.1"><metadata
     id="metadata8"><rdf:RDF><cc:Work
         rdf:about=""><dc:format>image/svg+xml</dc:format><dc:type
           rdf:resource="http://purl.org/dc/dcmitype/StillImage" /></cc:Work></rdf:RDF></metadata><defs
     id="defs6" /><g
     transform="matrix(1.3333333,0,0,1.3333333,0,1.2e-6)"
     id="g10"><g
       transform="translate(-185.87061,-153.67496)"
       id="g12"><path
         id="path14"
         style="fill:#349ecf;fill-opacity:1;fill-rule:evenodd;stroke:none"
         d="m 187.18372,174.44017 c 1.65564,2.68353 4.72039,4.48328 8.22442,4.48328 5.26718,0 9.53742,-4.07047 9.53742,-9.09418 0,-1.52667 -0.39634,-2.96732 -1.09299,-4.22595 l -4.09393,-7.09656 c -1.03925,-1.69724 0,0 -2.17527,-3.64182 -1.06076,-1.50442 -3.06469,-1.751 -4.41497,0.24659 l -1.38257,2.26565 -0.68595,1.13031 -4.13617,7.09583 c -0.69665,1.25863 -1.09301,2.70001 -1.09301,4.22595 0,1.68155 0.47662,3.25622 1.31302,4.6109 z" /></g><g
       transform="translate(-185.87061,-153.67483)"
       id="g16"><path
         id="path18"
         style="fill:#4275ab;fill-opacity:1;fill-rule:evenodd;stroke:none"
         d="m 187.22098,174.49951 c 1.66635,2.65051 4.70959,4.42377 8.18716,4.42377 2.22324,0 4.2702,-0.72321 5.89359,-1.94458 -0.1283,0.006 -0.25733,0.0108 -0.38559,0.0108 -3.50409,0 -6.56952,-1.80478 -8.2244,-4.48761 -0.83642,-1.35034 -1.31305,-2.92434 -1.31305,-4.60653 0,-1.52598 0.39133,-2.96665 1.09299,-4.23099 l 4.1362,-7.09586 0.68594,-1.12527 0.32178,-0.52466 c -0.0107,-0.0215 -0.0215,-0.0373 -0.0322,-0.0538 -1.06079,-1.50446 -3.06469,-1.75101 -4.415,0.24655 l -1.30732,2.15317 -0.0753,0.11251 -0.68592,1.13028 -4.1362,7.09583 c -0.69665,1.25867 -1.09301,2.70004 -1.09301,4.22601 0,1.68149 0.47662,3.25617 1.31231,4.61157 0.0115,0.0208 0.0272,0.0422 0.038,0.0588 h -3e-5 z" /></g></g></svg>