<svg xmlns="http://www.w3.org/2000/svg" width="16" height="15.993" viewBox="0 0 16 15.993">
  <g id="Minhas_Plantas" opacity="0.4">
    <g id="Layer_2" data-name="Layer 2">
      <path id="Caminho_803" data-name="Caminho 803" d="M17.21,1.674l-.659-.045c-.326-.023-7.471-.485-10.714,2.766-2.841,2.849-2.106,7.9-1.8,9.388L1.29,16.518l1.068,1.068,2.735-2.735a16.587,16.587,0,0,0,3.16.311c2.046,0,4.546-.424,6.228-2.122C17.74,9.8,17.278,2.659,17.255,2.334Zm-3.789,10.3c-1.864,1.864-5.13,1.781-6.986,1.515L8.2,11.752h3.478V10.237H9.716l1.515-1.515h2.72V7.206h-1.2L14.482,5.47,13.414,4.395,11.678,6.137v-1.2H10.163v2.72L8.647,9.168V7.206H7.132v3.478L5.359,12.457C5.132,10.6,5.048,7.334,6.874,5.47c2.266-2.228,7.077-2.379,8.9-2.357.023,1.819-.129,6.63-2.357,8.858Z" transform="translate(-1.29 -1.594)" fill="#fff"/>
    </g>
  </g>
</svg>
