<svg xmlns="http://www.w3.org/2000/svg" width="192.292" height="159.75" viewBox="0 0 192.292 159.75">
  <g id="Grupo_328" data-name="Grupo 328" transform="translate(-2814 -961)">
    <circle id="Elipse_105" data-name="Elipse 105" cx="44.375" cy="44.375" r="44.375" transform="translate(2828.82 1052.68) rotate(-60)" fill="#fab03c"/>
    <path id="União_8" data-name="União 8" d="M20.534,52.2A26.434,26.434,0,0,1,26.431,0h83.36V.015a33.548,33.548,0,0,1,2.1,66.936A47.789,47.789,0,0,1,20.534,52.2Z" transform="translate(3006.292 1120.75) rotate(180)" fill="#60daff"/>
    <path id="Interseção_2" data-name="Interseção 2" d="M32.53,79.288v-.016a33.555,33.555,0,0,1-28-50.382q1.105-.177,2.233-.281a47.686,47.686,0,0,1,4.328-7.793,33.421,33.421,0,0,1,19.339-8.479A47.746,47.746,0,0,1,36.57,2.076a47.823,47.823,0,0,1,61.551,41.28,26.456,26.456,0,0,1,18.514,35.921c-.248.007-.5.01-.745.01Z" transform="translate(2863.971 1041.462)" fill="#a0ecff"/>
    <path id="Interseção_1" data-name="Interseção 1" d="M.453,50.67A44.389,44.389,0,0,1,54.291,1.115a44.189,44.189,0,0,1-5.5,28.476A44.361,44.361,0,0,1,10.321,51.786,44.124,44.124,0,0,1,.453,50.67Z" transform="translate(2845.055 992.055)" fill="#f6cb43"/>
    <path id="União_10" data-name="União 10" d="M19.229,69.521a19.232,19.232,0,0,1-4.29-37.978A34.768,34.768,0,0,1,81.4,20.813a24.407,24.407,0,0,1-1.526,48.7v.011Z" transform="translate(2837.667 1051.229)" fill="#f0f5f7"/>
    <path id="Interseção_3" data-name="Interseção 3" d="M19.229,62.124a19.232,19.232,0,0,1-4.291-37.978A34.665,34.665,0,0,1,25.6,2.17,34.8,34.8,0,0,1,69.567,20.813a24.407,24.407,0,0,1,16.04,40.444,24.393,24.393,0,0,1-5.733.857v.011Z" transform="translate(2837.667 1058.626)" fill="#f0f5f7"/>
    <rect id="Retângulo_1464" data-name="Retângulo 1464" width="8.875" height="23.667" rx="4.438" transform="translate(2919.166 993.821) rotate(-150)" fill="#f6cb43"/>
    <rect id="Retângulo_1465" data-name="Retângulo 1465" width="8.875" height="23.667" rx="4.438" transform="translate(2885 961)" fill="#f6cb43"/>
    <rect id="Retângulo_1466" data-name="Retângulo 1466" width="8.875" height="23.667" rx="4.438" transform="translate(2847.876 973.325) rotate(-30)" fill="#f6cb43"/>
    <rect id="Retângulo_1467" data-name="Retângulo 1467" width="8.875" height="23.667" rx="4.438" transform="translate(2821.888 1002.562) rotate(-60)" fill="#f6cb43"/>
    <rect id="Retângulo_1469" data-name="Retângulo 1469" width="8.875" height="23.667" rx="4.438" transform="translate(2814 1040.875) rotate(-90)" fill="#f6cb43"/>
    <rect id="Retângulo_1471" data-name="Retângulo 1471" width="8.875" height="23.667" rx="4.438" transform="translate(2826.325 1077.999) rotate(-120)" fill="#f6cb43"/>
    <rect id="Retângulo_1472" data-name="Retângulo 1472" width="8.875" height="23.667" rx="4.438" transform="translate(2936.491 1014.395) rotate(-120)" fill="#f6cb43"/>
  </g>
</svg>
