<svg xmlns="http://www.w3.org/2000/svg" width="141.759" height="162.011" viewBox="0 0 141.759 162.011">
  <g id="_038-fertilizer" data-name="038-fertilizer" transform="translate(0 0)">
    <g id="Grupo_329" data-name="Grupo 329" transform="translate(0 0)">
      <path id="Caminho_722" data-name="Caminho 722" d="M118.021,0c-6.871,0-12.949,2.578-16.68,6.551-.748-.074-1.514-.11-2.29-.11-9.938,0-17.992,6.181-17.992,13.8v.028c-8.331.378-14.925,5.682-14.925,12.16l49.949,7.984,51.881-7.984c0-6.478-6.6-11.782-14.926-12.16v-.028c0-7.623-8.054-13.8-17.992-13.8l-.443.009C130.859,2.531,124.829,0,118.021,0Zm0,0" transform="translate(-45.206 0)" fill="#a66d30" fill-rule="evenodd"/>
      <path id="Caminho_723" data-name="Caminho 723" d="M138.3,134.666l-59.241-7.725-55.278,7.725c-7.149,24.606-11.869,60.136-6.8,92.348l60.211,9.018,67.9-9.018c5.07-32.211.351-67.742-6.8-92.348Zm0,0" transform="translate(-10.156 -86.773)" fill="#f5df87" fill-rule="evenodd"/>
      <path id="Caminho_724" data-name="Caminho 724" d="M83.448,102.5H26.11a7.73,7.73,0,1,0,0,15.459H142.828a7.73,7.73,0,0,0,0-15.459Zm0,0" transform="translate(-12.564 -70.066)" fill="#d9a13f" fill-rule="evenodd"/>
      <path id="Caminho_725" data-name="Caminho 725" d="M134.938,443.2H6.822c-9.651,5.729-10.64,21.77,7.445,21.77H127.493c18.085,0,17.1-16.041,7.445-21.77Zm0,0" transform="translate(0 -302.958)" fill="#d9a13f" fill-rule="evenodd"/>
      <path id="Caminho_726" data-name="Caminho 726" d="M99.05,6.441c-9.938,0-17.992,6.181-17.992,13.8v.028c-8.331.378-14.925,5.682-14.925,12.16h35.448C103.114,19.572,111.787,8.261,124.588.823A26.174,26.174,0,0,0,118.02,0c-6.871,0-12.949,2.578-16.68,6.551-.748-.073-1.514-.11-2.29-.11Zm0,0" transform="translate(-45.206 0)" fill="#6e3e0b" fill-rule="evenodd"/>
      <path id="Caminho_727" data-name="Caminho 727" d="M31.568,102.5H26.109a7.73,7.73,0,1,0,0,15.459H41.451a7.726,7.726,0,0,1-3.3-14.711,7.624,7.624,0,0,1,3.3-.748Zm0,0" transform="translate(-12.563 -70.066)" fill="#a66d30" fill-rule="evenodd"/>
      <path id="Caminho_728" data-name="Caminho 728" d="M34.444,151.355H23.775c-7.149,24.606-11.869,60.136-6.8,92.348H27.728c-5.08-32.211-.36-67.74,6.788-92.348Zm0,0" transform="translate(-10.156 -103.462)" fill="#d9a13f" fill-rule="evenodd"/>
      <path id="Caminho_729" data-name="Caminho 729" d="M22.173,443.2H6.822c-9.651,5.729-10.64,21.77,7.445,21.77h15.35c-16.338,0-17.106-13.1-9.975-19.848a14.544,14.544,0,0,1,2.53-1.922Zm0,0" transform="translate(-0.001 -302.958)" fill="#a66d30" fill-rule="evenodd"/>
      <path id="Caminho_730" data-name="Caminho 730" d="M149.269,203.656c-6.336.054-8.609,3.826-8.506,9.757.609,38.006,26.294,52.772,42.948,38.163.056-.056.111-.1.167-.148l.091-.083c19.009-17.1-4.451-46.4-34.7-47.689Zm0,0" transform="translate(-96.219 -139.213)" fill="#8fde56" fill-rule="evenodd"/>
      <path id="Caminho_731" data-name="Caminho 731" d="M148.555,203.742c-5.791.324-7.887,4.03-7.8,9.73.592,37.036,24.994,52.006,41.656,39.226-15.85,5.22-34.618-10.294-35.135-42.719a12.024,12.024,0,0,1,1.274-6.237Zm0,0" transform="translate(-96.217 -139.272)" fill="#47a831" fill-rule="evenodd"/>
    </g>
    <path id="Caminho_732" data-name="Caminho 732" d="M226.075,298.142,210.13,280.17l1.145-9.068a2.443,2.443,0,1,0-4.848-.613l-.609,4.822-6.059-6.83.895-7.042a2.443,2.443,0,1,0-4.848-.617l-.356,2.8-3.964-4.467a2.444,2.444,0,1,0-3.655,3.245l4.084,4.6-3.53.119a2.444,2.444,0,0,0,.082,4.887h.084l7.578-.257,6.158,6.942-5.7.193a2.444,2.444,0,0,0,.082,4.886h.084l9.749-.33,15.922,17.945a2.443,2.443,0,1,0,3.654-3.245Zm0,0" transform="translate(-127.16 -176.591)" fill="#178035"/>
  </g>
</svg>
