<svg xmlns="http://www.w3.org/2000/svg" width="193" height="142.112" viewBox="0 0 193 142.112">
  <g id="_001-watering_can" data-name="001-watering can" transform="translate(0 -0.5)">
    <path id="Caminho_708" data-name="Caminho 708" d="M343.736,139.638l-12.35,34.032,12.35,24.26,39.309-50.25-18.636-24.415Zm0,0" transform="translate(-206.469 -76.489)" fill="#349ecf" fill-rule="evenodd"/>
    <path id="Caminho_709" data-name="Caminho 709" d="M0,38.262V78.213a41.4,41.4,0,0,0,41.114,37.772c.275,0,.561-.012.848-.012v-.153l6.99-7.757-6.99-7.626c-.287.012-.573.012-.848.012a25.784,25.784,0,0,1-25.726-25.7V41.738A25.717,25.717,0,0,1,65.2,32.748l7.87,5.93,8.156-5.93h.155A41.263,41.263,0,0,0,0,38.261Zm0,0" fill="#349ecf" fill-rule="evenodd"/>
    <path id="Caminho_710" data-name="Caminho 710" d="M418.992,100.078l18.636,24.415a23.247,23.247,0,0,0,11.823-.758c3.49-1.6,4.6-3.478,4.6-5.149v-.012a5.125,5.125,0,0,0-1.178-3.069L442.1,101.773,431.32,88.03c-1.552-1.98-4.755-3.752-8.805,1.365a23.08,23.08,0,0,0-3.522,10.683Zm0,0" transform="translate(-261.052 -53.301)" fill="#e6e6e6" fill-rule="evenodd"/>
    <path id="Caminho_711" data-name="Caminho 711" d="M111.316,139.248l44.274,7.483,51.032-7.483V49.874c0-2.1.253-3.08-1.419-7.393l-7.794-20.168c-.627-1.639-1.431-3.191-3.192-3.191H174.545c-1.751,0-2.433,1.606-3.181,3.191L164.011,37.87c-3.06,6.48-3.116,6.48-9.191,6.48H122.435a11.415,11.415,0,0,0-11.117,11.63v83.268Zm0,0" transform="translate(-69.355 -11.602)" fill="#e6e6e6" fill-rule="evenodd"/>
    <path id="Caminho_712" data-name="Caminho 712" d="M188.568,196.334a19.777,19.777,0,0,0,16.9,9.21c10.821,0,19.594-8.362,19.594-18.683a17.876,17.876,0,0,0-2.246-8.682L214.4,163.6c-2.135-3.487,0,0-4.469-7.482-2.179-3.091-6.3-3.6-9.07.507l-2.84,4.654-1.409,2.322-8.5,14.577a17.944,17.944,0,0,0,.452,18.154Zm0,0" transform="translate(-115.806 -95.435)" fill="#349ecf" fill-rule="evenodd"/>
    <path id="Caminho_713" data-name="Caminho 713" d="M112.028,352.766h86.3a4.27,4.27,0,0,0,4.26-4.258v-6.448a4.27,4.27,0,0,0-4.26-4.258H98.885a4.281,4.281,0,0,0-4.272,4.258v6.448a4.28,4.28,0,0,0,4.272,4.258Zm0,0" transform="translate(-58.948 -210.154)" fill="#349ecf" fill-rule="evenodd"/>
    <g id="Grupo_326" data-name="Grupo 326" transform="translate(0 0.5)">
      <path id="Caminho_714" data-name="Caminho 714" d="M188.645,196.456a19.792,19.792,0,0,0,16.82,9.088,20.08,20.08,0,0,0,12.108-3.995c-.264.012-.529.022-.792.022a19.786,19.786,0,0,1-16.9-9.219,17.947,17.947,0,0,1-.452-18.156l8.5-14.577,1.409-2.312L210,156.23a1.039,1.039,0,0,0-.066-.11c-2.179-3.091-6.3-3.6-9.07.507l-2.686,4.423-.155.231-1.409,2.322-8.5,14.578a17.952,17.952,0,0,0,.451,18.156c.024.043.056.087.078.121Zm0,0" transform="translate(-115.806 -95.935)" fill="#4275ab" fill-rule="evenodd"/>
      <path id="Caminho_715" data-name="Caminho 715" d="M107.638,337.8H98.887a4.279,4.279,0,0,0-4.27,4.258v6.448a4.278,4.278,0,0,0,4.27,4.258h8.751a4.278,4.278,0,0,1-4.27-4.258v-6.448a4.286,4.286,0,0,1,4.27-4.258Zm0,0" transform="translate(-58.951 -210.654)" fill="#4275ab" fill-rule="evenodd"/>
      <path id="Caminho_716" data-name="Caminho 716" d="M364.148,158.352v58.292l.122-.165,6.252-7.988V153.3l-6.252,4.952Zm0,0" transform="translate(-226.881 -95.702)" fill="#4275ab" fill-rule="evenodd"/>
      <path id="Caminho_717" data-name="Caminho 717" d="M0,40.4V78.213a41.435,41.435,0,0,0,33.606,37.078h.012c.991.187,1.992.331,3.005.44A41.463,41.463,0,0,1,8.278,80.006V40.055A41.4,41.4,0,0,1,49.393,2.282a40.4,40.4,0,0,1,4.491.253,39.929,39.929,0,0,0-5.13-1.319A40.6,40.6,0,0,0,41.114.5,41.394,41.394,0,0,0,0,38.262Zm0,0" transform="translate(0 -0.5)" fill="#4275ab" fill-rule="evenodd"/>
    </g>
    <path id="Caminho_718" data-name="Caminho 718" d="M111.316,153.772V180.95h9.191V93.819a11.84,11.84,0,0,1,2.852-7.747.043.043,0,0,1,.01-.022h-.935a11.415,11.415,0,0,0-11.119,11.63Zm0,0" transform="translate(-69.355 -53.302)" fill="#adafb3" fill-rule="evenodd"/>
  </g>
</svg>
