<svg xmlns="http://www.w3.org/2000/svg" width="251.51" height="178.883" viewBox="0 0 251.51 178.883">
  <g id="Grupo_333" data-name="Grupo 333" transform="translate(-50 -176.808)">
    <g id="_004-sprout" data-name="004-sprout" transform="translate(50 185.351)">
      <path id="Caminho_734" data-name="Caminho 734" d="M47.36,34.334C58.518,17.462,41.741-3.948,7,.624,1.672,1.6-.536,4.3.11,9.344,5,36.3,34.177,53.723,47.194,34.587l.061-.1.1-.156Zm0,0" transform="translate(0 0.002)" fill="#8fde56" fill-rule="evenodd"/>
      <path id="Caminho_735" data-name="Caminho 735" d="M43.721,40.243C29.4,45.147,9.6,29.6,5.659,7.823a7.891,7.891,0,0,1,.854-5.4C1.54,3.476-.519,6.159.109,11.046c4.485,24.763,29.479,41.487,43.612,29.2Zm0,0" transform="translate(0 -1.699)" fill="#47a831" fill-rule="evenodd"/>
      <path id="Caminho_736" data-name="Caminho 736" d="M261.157,34.334C250,17.462,266.775-3.948,301.514.624c5.331.976,7.547,3.676,6.892,8.72C303.52,36.3,274.339,53.723,261.322,34.586l-.061-.1-.1-.156Zm0,0" transform="translate(-180.855 0.002)" fill="#8fde56" fill-rule="evenodd"/>
      <path id="Caminho_737" data-name="Caminho 737" d="M281.445,40.243c14.325,4.9,34.11-10.645,38.055-32.42a7.891,7.891,0,0,0-.855-5.4c4.973,1.053,7.032,3.737,6.4,8.623-4.485,24.763-29.479,41.487-43.6,29.2Zm0,0" transform="translate(-197.497 -1.699)" fill="#47a831" fill-rule="evenodd"/>
      <path id="Caminho_738" data-name="Caminho 738" d="M100.077,66.286,80.765,53.373l-.9-8.741a2.307,2.307,0,0,0-4.589.472l.509,4.941L69,45.513l-.693-6.785a2.307,2.307,0,0,0-4.591.467l.305,2.991L59.546,39.2a2.305,2.305,0,1,0-2.566,3.831L61.3,45.916l-2.271.612a2.3,2.3,0,0,0,.6,4.529,2.339,2.339,0,0,0,.6-.079l6.161-1.66,6.674,4.459-4.053,1.086a2.3,2.3,0,1,0,1.2,4.452l7.956-2.133L97.512,70.117a2.305,2.305,0,1,0,2.566-3.831Zm0,0" transform="translate(-39.265 -25.723)" fill="#178035"/>
      <path id="Caminho_739" data-name="Caminho 739" d="M265.438,39.834a2.309,2.309,0,0,0-3.2-.635l-4.469,2.985.309-2.985a2.307,2.307,0,0,0-4.589-.472l-.7,6.786L246,50.046l.51-4.941a2.307,2.307,0,0,0-4.591-.472l-.9,8.741L221.706,66.287a2.305,2.305,0,0,0,2.564,3.831l19.346-12.935,7.956,2.132a2.3,2.3,0,1,0,1.2-4.451l-4.054-1.087,6.674-4.458,6.162,1.659a2.282,2.282,0,0,0,.6.08,2.3,2.3,0,0,0,.6-4.53l-2.271-.612L264.8,43.03a2.3,2.3,0,0,0,.636-3.2Zm0,0" transform="translate(-154.858 -25.724)" fill="#178035"/>
      <g id="Grupo_330" data-name="Grupo 330" transform="translate(8.686 5.81)">
        <path id="Caminho_740" data-name="Caminho 740" d="M206.444,55.275V25.051a5.583,5.583,0,0,0-11.167,0V84.463a18.3,18.3,0,0,1,5.628-.888,18.05,18.05,0,0,1,5.539.862Zm0,0" transform="translate(-145.717 -19.477)" fill="#47a831" fill-rule="evenodd"/>
        <path id="Caminho_741" data-name="Caminho 741" d="M147.054,363.76l-47.719-7.142-47.72,7.142,5.111,30.311c.812,4.8,4.493,8.894,10.251,8.894h64.715c5.749,0,9.439-4.093,10.251-8.894Zm0,0" transform="translate(-44.905 -256.057)" fill="#b3adad" fill-rule="evenodd"/>
        <path id="Caminho_742" data-name="Caminho 742" d="M137.179,216.477a15.9,15.9,0,0,0-15.913-15.9l-.391.009a18.182,18.182,0,0,0-29.409.122,15.54,15.54,0,0,0-2.024-.132,15.908,15.908,0,0,0-15.922,15.9l.008.026a14.042,14.042,0,0,0-13.2,14l43.331,8.3,46.717-8.3a14.042,14.042,0,0,0-13.2-14v-.026Zm0,0" transform="translate(-51.02 -141.36)" fill="#a66d30" fill-rule="evenodd"/>
        <path id="Caminho_743" data-name="Caminho 743" d="M87.189,230.5a47.138,47.138,0,0,1,22.176-37.062,18.775,18.775,0,0,0-3.158-.27,18.146,18.146,0,0,0-14.744,7.543,15.535,15.535,0,0,0-2.024-.13,15.908,15.908,0,0,0-15.922,15.9l.008.027a14.041,14.041,0,0,0-13.2,14Zm0,0" transform="translate(-51.02 -141.363)" fill="#6e3e0b" fill-rule="evenodd"/>
        <path id="Caminho_744" data-name="Caminho 744" d="M204.9,21.209a5.581,5.581,0,0,0-9.623,3.841V72.173a18.008,18.008,0,0,1,4.869-.872V26.722a5.6,5.6,0,0,1,4.754-5.513Zm0,0" transform="translate(-145.717 -19.477)" fill="#178035" fill-rule="evenodd"/>
        <path id="Caminho_745" data-name="Caminho 745" d="M128.478,318.332H34.233a5.126,5.126,0,0,0-5.111,5.1V331.8a5.119,5.119,0,0,0,5.111,5.1h98.442a5.119,5.119,0,0,0,5.111-5.1v-8.361a5.127,5.127,0,0,0-5.111-5.1Zm0,0" transform="translate(-29.121 -229.191)" fill="#e6e6e6" fill-rule="evenodd"/>
        <path id="Caminho_746" data-name="Caminho 746" d="M35.646,331.8v-8.361a5.12,5.12,0,0,1,5.1-5.1H34.233a5.126,5.126,0,0,0-5.111,5.1V331.8a5.118,5.118,0,0,0,5.111,5.1H38.8A5.826,5.826,0,0,1,35.646,331.8Zm0,0" transform="translate(-29.121 -229.191)" fill="#adafb3" fill-rule="evenodd"/>
        <path id="Caminho_747" data-name="Caminho 747" d="M51.613,380.563l5.111,30.311c.812,4.8,4.493,8.893,10.251,8.893h8.5c-5.749,0-9.44-4.093-10.251-8.893L61.89,391.111a3.086,3.086,0,0,1,2.626-3.04h81.273l1.264-7.508Zm0,0" transform="translate(-44.904 -272.86)" fill="#757a85" fill-rule="evenodd"/>
      </g>
    </g>
    <g id="_036-cactus" data-name="036-cactus" transform="translate(209.123 176.808)">
      <path id="Caminho_763" data-name="Caminho 763" d="M99.81,50.558A35.846,35.846,0,0,0,86.884,38.869a36.06,36.06,0,0,0-34.368,0A35.846,35.846,0,0,0,39.591,50.558a31.379,31.379,0,0,0-5.243,15.25,31.888,31.888,0,0,0-.009,4.068l.8,12.711L36.192,99.12,37.3,116.549l32.4,5.741,32.4-5.741,1.112-17.429,1.048-16.533.8-12.711a31.889,31.889,0,0,0-.009-4.068,31.379,31.379,0,0,0-5.243-15.25Zm0,0" transform="translate(-23.507 -23.667)" fill="#47a831" fill-rule="evenodd"/>
      <g id="Grupo_332" data-name="Grupo 332" transform="translate(0 0)">
        <path id="Caminho_764" data-name="Caminho 764" d="M69.7,34.512a36.352,36.352,0,0,0-17.184,4.358A35.846,35.846,0,0,0,39.592,50.558a31.379,31.379,0,0,0-5.243,15.25,31.889,31.889,0,0,0-.009,4.068l.8,12.711L36.193,99.12,37.3,116.549h12.42l-1.1-17.429-1.05-16.533-.8-12.711a30.588,30.588,0,0,1,.009-4.068,31.4,31.4,0,0,1,5.243-15.25A35.769,35.769,0,0,1,64.947,38.869a36.767,36.767,0,0,1,10.964-3.815,36.123,36.123,0,0,0-6.21-.543Zm0,0" transform="translate(-23.508 -23.667)" fill="#178035" fill-rule="evenodd"/>
        <path id="Caminho_765" data-name="Caminho 765" d="M141.784,228.416a2.392,2.392,0,0,1-2.39-2.392v-29.48a2.39,2.39,0,1,1,4.78,0v29.48A2.392,2.392,0,0,1,141.784,228.416Zm0,0" transform="translate(-95.591 -133.142)" fill="#178035"/>
        <path id="Caminho_766" data-name="Caminho 766" d="M174.12,182.017c-.074,0-.15,0-.225-.01a2.392,2.392,0,0,1-2.157-2.6l4.736-50.741a2.39,2.39,0,1,1,4.759.444L176.5,179.847A2.391,2.391,0,0,1,174.12,182.017Zm0,0" transform="translate(-117.764 -86.742)" fill="#178035"/>
        <path id="Caminho_767" data-name="Caminho 767" d="M99.114,182.016a2.39,2.39,0,0,1-2.376-2.17L92,129.1a2.39,2.39,0,1,1,4.759-.444L101.5,179.4a2.391,2.391,0,0,1-2.157,2.6C99.263,182.013,99.187,182.016,99.114,182.016Zm0,0" transform="translate(-63.083 -86.742)" fill="#178035"/>
        <path id="Caminho_768" data-name="Caminho 768" d="M258.979,184.67H251.5a2.392,2.392,0,0,1,0-4.784h7.484a2.392,2.392,0,0,1,0,4.784Zm0,0" transform="translate(-170.826 -123.359)" fill="#178035"/>
        <path id="Caminho_769" data-name="Caminho 769" d="M256.868,237.285h-8.451a2.392,2.392,0,0,1,0-4.785h8.451a2.392,2.392,0,0,1,0,4.785Zm0,0" transform="translate(-168.716 -159.44)" fill="#178035"/>
        <path id="Caminho_770" data-name="Caminho 770" d="M262.736,131.277h-8.451a2.392,2.392,0,0,1,0-4.785h8.451a2.392,2.392,0,0,1,0,4.785Zm0,0" transform="translate(-172.74 -86.744)" fill="#178035"/>
        <path id="Caminho_771" data-name="Caminho 771" d="M237.6,71.479a2.392,2.392,0,0,1-1.458-4.289l6.707-5.163a2.391,2.391,0,0,1,2.913,3.793l-6.707,5.163A2.377,2.377,0,0,1,237.6,71.479Zm0,0" transform="translate(-161.298 -42.196)" fill="#178035"/>
        <path id="Caminho_772" data-name="Caminho 772" d="M15.741,184.67H8.257a2.392,2.392,0,0,1,0-4.784h7.484a2.392,2.392,0,0,1,0,4.784Zm0,0" transform="translate(-4.024 -123.359)" fill="#178035"/>
        <path id="Caminho_773" data-name="Caminho 773" d="M16.708,237.285H8.257a2.392,2.392,0,0,1,0-4.785h8.451a2.392,2.392,0,0,1,0,4.785Zm0,0" transform="translate(-4.024 -159.44)" fill="#178035"/>
        <path id="Caminho_774" data-name="Caminho 774" d="M10.841,131.277H2.39a2.392,2.392,0,0,1,0-4.785h8.451a2.392,2.392,0,0,1,0,4.785Zm0,0" transform="translate(0 -86.744)" fill="#178035"/>
        <path id="Caminho_775" data-name="Caminho 775" d="M31.33,71.479a2.381,2.381,0,0,1-1.456-.5l-6.707-5.163a2.392,2.392,0,0,1,2.914-3.793l6.706,5.163a2.392,2.392,0,0,1-1.457,4.289Zm0,0" transform="translate(-15.247 -42.196)" fill="#178035"/>
        <path id="Caminho_776" data-name="Caminho 776" d="M141.784,13.236a2.391,2.391,0,0,1-2.39-2.391V2.392a2.39,2.39,0,1,1,4.78,0v8.453A2.391,2.391,0,0,1,141.784,13.236Zm0,0" transform="translate(-95.591 0)" fill="#178035"/>
        <path id="Caminho_777" data-name="Caminho 777" d="M196.464,29.686a2.392,2.392,0,0,1-2.051-3.617l4.331-7.268a2.39,2.39,0,1,1,4.1,2.45l-4.329,7.268a2.388,2.388,0,0,1-2.055,1.167Zm0,0" transform="translate(-133.09 -12.092)" fill="#178035"/>
        <path id="Caminho_778" data-name="Caminho 778" d="M77.655,29.688A2.39,2.39,0,0,1,75.6,28.521L71.27,21.253a2.391,2.391,0,1,1,4.1-2.451l4.331,7.268a2.392,2.392,0,0,1-2.051,3.617Zm0,0" transform="translate(-48.643 -12.094)" fill="#178035"/>
      </g>
      <path id="Caminho_779" data-name="Caminho 779" d="M103.078,326.495l-38-7.386-37.856,7.386,4.067,46.14a7.874,7.874,0,0,0,8.146,7.088H90.867a7.888,7.888,0,0,0,8.153-7.088Zm0,0" transform="translate(-18.668 -218.832)" fill="#b3adad" fill-rule="evenodd"/>
      <path id="Caminho_780" data-name="Caminho 780" d="M20.848,295.578H14.339a4.077,4.077,0,0,0-4.058,4.068V306.3a4.069,4.069,0,0,0,4.058,4.058H92.573a4.072,4.072,0,0,0,4.068-4.058v-6.654a4.08,4.08,0,0,0-4.068-4.068H20.847Zm0,0" transform="translate(-7.051 -202.696)" fill="#e6e6e6" fill-rule="evenodd"/>
      <path id="Caminho_781" data-name="Caminho 781" d="M18.136,295.578h-3.8a4.077,4.077,0,0,0-4.058,4.068V306.3a4.069,4.069,0,0,0,4.058,4.058h7.538c1.112,0-2.133-.46-2.874-1.193a4.055,4.055,0,0,1-1.193-2.865v-6.653a4.079,4.079,0,0,1,2.386-3.7,4,4,0,0,1,1.68-.372Zm0,0" transform="translate(-7.05 -202.696)" fill="#adafb3" fill-rule="evenodd"/>
      <path id="Caminho_782" data-name="Caminho 782" d="M27.223,342.613l4.067,46.14a7.874,7.874,0,0,0,8.146,7.088H49.676a7.886,7.886,0,0,1-8.144-7.088l-3.055-34.759a3.191,3.191,0,0,1,3.182-3.01h60.679l.741-8.372Zm0,0" transform="translate(-18.668 -234.95)" fill="#757a85" fill-rule="evenodd"/>
    </g>
    <g id="_032-tulip" data-name="032-tulip" transform="translate(134.367 179.214)">
      <path id="Caminho_748" data-name="Caminho 748" d="M3.948,195.115C6.754,219.836,32.1,237.36,45,220.781l.061-.079a20.708,20.708,0,0,0,1.489-2.205c8.306-14.272-5.421-32.551-35.109-30.92-4.856.261-7.824,2.345-7.491,7.539Zm0,0" transform="translate(-2.571 -122.855)" fill="#8fde56" fill-rule="evenodd"/>
      <path id="Caminho_749" data-name="Caminho 749" d="M3.948,195.193C6.754,219.915,32.1,237.438,45,220.86l.061-.079c.432-.564.835-1.138,1.2-1.722-13.375,4.7-31.165-10.84-33.5-31.313a.711.711,0,0,0-.011-.151l-1.307.061c-4.856.261-7.824,2.345-7.491,7.539Zm0,0" transform="translate(-2.571 -122.934)" fill="#47a831" fill-rule="evenodd"/>
      <path id="Caminho_750" data-name="Caminho 750" d="M224.464,195.115c-2.806,24.721-28.149,42.245-41.052,25.667l-.061-.079a19.371,19.371,0,0,1-1.488-2.205c-8.307-14.272,5.421-32.551,35.107-30.92,4.857.261,7.813,2.345,7.493,7.539Zm0,0" transform="translate(-117.612 -122.855)" fill="#8fde56" fill-rule="evenodd"/>
      <path id="Caminho_751" data-name="Caminho 751" d="M229.566,195.193c-2.806,24.721-28.149,42.245-41.052,25.667l-.061-.079a18.825,18.825,0,0,1-1.2-1.722c13.364,4.7,31.165-10.84,33.488-31.313a.711.711,0,0,0,.011-.151l1.317.061c4.856.261,7.813,2.345,7.493,7.539Zm0,0" transform="translate(-122.713 -122.934)" fill="#47a831" fill-rule="evenodd"/>
      <path id="Caminho_752" data-name="Caminho 752" d="M131.6,196.752a2.664,2.664,0,0,0-3.657-.913L106.891,208.5V172.772a2.665,2.665,0,1,0-5.33,0V208.5L80.508,195.841a2.667,2.667,0,0,0-2.747,4.572l23.8,14.311v15.551a2.665,2.665,0,1,0,5.33,0V214.724l23.8-14.311a2.668,2.668,0,0,0,.912-3.661Zm0,0" transform="translate(-50.111 -111.473)" fill="#178035"/>
      <g id="Grupo_331" data-name="Grupo 331" transform="translate(0 0)">
        <path id="Caminho_753" data-name="Caminho 753" d="M114.44,384.867,66.9,377.731l-47.527,7.136,5.088,30.257c.8,4.8,4.485,8.888,10.207,8.888H99.133c5.732,0,9.4-4.086,10.207-8.888Zm0,0" transform="translate(-12.697 -247.534)" fill="#b3adad" fill-rule="evenodd"/>
        <path id="Caminho_754" data-name="Caminho 754" d="M98.957,344.672H5.088A5.1,5.1,0,0,0,0,349.765v8.344A5.1,5.1,0,0,0,5.088,363.2h98.052a5.11,5.11,0,0,0,5.089-5.093v-8.344a5.11,5.11,0,0,0-5.089-5.093Zm0,0" transform="translate(0 -225.87)" fill="#e6e6e6" fill-rule="evenodd"/>
        <path id="Caminho_755" data-name="Caminho 755" d="M6.486,358.109v-8.344a5.112,5.112,0,0,1,5.1-5.093h-6.5A5.1,5.1,0,0,0,0,349.765v8.344A5.1,5.1,0,0,0,5.088,363.2H9.624a5.846,5.846,0,0,1-3.138-5.093Zm0,0" transform="translate(0 -225.87)" fill="#adafb3" fill-rule="evenodd"/>
        <path id="Caminho_756" data-name="Caminho 756" d="M32.928,428.69,27.84,398.434l1.4,8.294.594,3.553a3.566,3.566,0,0,1,3.419-3.553h79.79l1.4-8.294H19.37L24.46,428.69c.8,4.8,4.485,8.888,10.207,8.888h8.468c-5.732,0-9.4-4.086-10.207-8.888Zm0,0" transform="translate(-12.694 -261.101)" fill="#757a85" fill-rule="evenodd"/>
        <path id="Caminho_757" data-name="Caminho 757" d="M118.72,0c-5.149.02-20.134,9.169-20.134,23.281,3.39,13.307,13.647,12.542,20.134,19.255,6.476-6.723,17.056-9.178,20.133-19.255C138.853,9.955,124.029-.03,118.72,0Zm0,0" transform="translate(-64.605 0)" fill="#ff698f" fill-rule="evenodd"/>
        <path id="Caminho_758" data-name="Caminho 758" d="M129.945,78.484c-5.913,6.13-11.113,14.746-14.21,26.251l-.02.09h28.46c9.231,0,19.178-8.877,19.219-21.419l.03-6.6A10.018,10.018,0,0,0,151.6,66.556c-6.638.9-14.642,4.661-21.652,11.928Zm0,0" transform="translate(-75.83 -43.527)" fill="#cf4b82" fill-rule="evenodd"/>
        <path id="Caminho_759" data-name="Caminho 759" d="M71.685,66.559A10.013,10.013,0,0,0,59.867,76.805l.02,6.6c.04,12.542,10,21.42,19.229,21.42,21.339,0,20.857-18.661,14.23-26.341C86.338,71.219,78.332,67.454,71.685,66.559Zm0,0" transform="translate(-39.232 -43.529)" fill="#cf4b82" fill-rule="evenodd"/>
        <path id="Caminho_760" data-name="Caminho 760" d="M126.073,83.008a62.524,62.524,0,0,0-10.338,21.731c.03-.1.059-.211.09-.322.241-.886.493-1.752.765-2.607a61.123,61.123,0,0,1,9.483-18.8Zm-4.555,21.821A60.688,60.688,0,0,1,131.966,84.2c1.035-1.309,2.1-2.516,3.188-3.643a42.764,42.764,0,0,1,12.8-9.261,31.3,31.3,0,0,1,8.861-2.667,10.866,10.866,0,0,1,2.786-.081A10.293,10.293,0,0,0,151.6,66.56c-.493.071-1.006.152-1.519.252-6.325,1.239-13.657,4.953-20.133,11.676a51.075,51.075,0,0,0-3.872,4.52,62.524,62.524,0,0,0-10.338,21.731l-.02.09Zm0,0" transform="translate(-75.83 -43.531)" fill="#9e1b69" fill-rule="evenodd"/>
        <path id="Caminho_761" data-name="Caminho 761" d="M71.685,66.559A10.013,10.013,0,0,0,59.867,76.805l.011,1.289a9.976,9.976,0,0,1,10.569-5.042,29.958,29.958,0,0,1,6.688,1.75,40.862,40.862,0,0,1,12.592,7.871,50.914,50.914,0,0,1,3.47-4.026,1.937,1.937,0,0,1,.151-.16,41.616,41.616,0,0,0-15.589-10.4,30.95,30.95,0,0,0-4.545-1.278c-.513-.1-1.026-.182-1.528-.252Zm0,0" transform="translate(-39.232 -43.529)" fill="#9e1b69" fill-rule="evenodd"/>
        <path id="Caminho_762" data-name="Caminho 762" d="M99.813,47.6a19.965,19.965,0,0,0-1.228,6.875,30.784,30.784,0,0,1,4.546,1.278,41.625,41.625,0,0,1,15.589,10.4c6.476-6.724,13.807-10.439,20.133-11.676a19.124,19.124,0,0,0-1.3-6.814A38.935,38.935,0,0,0,121,56.892c-2.192,2.134-2.665,1.026-4.395,0a42.8,42.8,0,0,0-13.375-8.264A30.254,30.254,0,0,0,99.813,47.6Zm0,0" transform="translate(-64.605 -31.194)" fill="#cf4b82" fill-rule="evenodd"/>
      </g>
    </g>
  </g>
</svg>
