<svg xmlns="http://www.w3.org/2000/svg" width="17" height="17" viewBox="0 0 17 17">
  <g id="Profile" transform="translate(0.5 0.5)" opacity="0.4">
    <g id="Grupo_369" data-name="Grupo 369">
      <path id="Caminho_804" data-name="Caminho 804" d="M179.048,106A3.034,3.034,0,1,1,176,109.048,3.047,3.047,0,0,1,179.048,106Zm0,.959a2.074,2.074,0,1,0,2.06,2.088A2.083,2.083,0,0,0,179.048,106.959Z" transform="translate(-171.034 -103.009)" fill="#fff" stroke="#fff" stroke-width="1"/>
      <path id="Caminho_805" data-name="Caminho 805" d="M8.014,0A8,8,0,1,1,0,8.014,8,8,0,0,1,8.014,0Zm0,9.312a4.893,4.893,0,0,1,4.769,3.866,6.948,6.948,0,0,0,2.286-5.164A7.055,7.055,0,1,0,3.217,13.178,4.9,4.9,0,0,1,8.014,9.312Zm3.922,4.543v-.028a3.941,3.941,0,0,0-7.845,0v.028a6.873,6.873,0,0,0,3.922,1.213A7.009,7.009,0,0,0,11.937,13.855Z" fill="#fff" stroke="#fff" stroke-width="1"/>
    </g>
  </g>
</svg>
