<?xml version="1.0" encoding="UTF-8" standalone="no"?>
<svg
   xmlns:dc="http://purl.org/dc/elements/1.1/"
   xmlns:cc="http://creativecommons.org/ns#"
   xmlns:rdf="http://www.w3.org/1999/02/22-rdf-syntax-ns#"
   xmlns:svg="http://www.w3.org/2000/svg"
   xmlns="http://www.w3.org/2000/svg"
   viewBox="0 0 36 37.333332"
   height="37.333332"
   width="36"
   xml:space="preserve"
   id="svg2"
   version="1.1"><metadata
     id="metadata8"><rdf:RDF><cc:Work
         rdf:about=""><dc:format>image/svg+xml</dc:format><dc:type
           rdf:resource="http://purl.org/dc/dcmitype/StillImage" /></cc:Work></rdf:RDF></metadata><defs
     id="defs6" /><g
     transform="scale(1.3333333)"
     id="g10"><g
       transform="translate(-41.79126,-7.5721741e-4)"
       id="g12"><path
         id="path14"
         style="fill:#a66d30;fill-opacity:1;fill-rule:evenodd;stroke:none"
         d="M 53.988533,0.07232538 C 52.227325,0.26469633 50.586662,0.84837627 49.64642,1.8977307 47.982033,1.6862925 46.501759,2.9807723 46.501759,4.6695228 v 0.00466 c -1.291096,0.077965 -2.313965,1.1497731 -2.313965,2.4616223 L 55.160576,9.9599285 66.187378,7.1358066 c 0,-1.3118492 -1.022865,-2.3836575 -2.313946,-2.4616223 C 63.89716,3.1078889 62.563053,1.8390487 61.014565,1.8771824 60.312656,0.91999227 58.624329,0.28546107 56.720123,0.0772031 c -0.8894,-0.09872756 -1.826252,-0.10338866 -2.73154,-0.0048728 z" /></g><g
       transform="translate(-25.701904,-172.33568)"
       id="g16"><path
         id="path18"
         style="fill:#349ecf;fill-opacity:1;fill-rule:evenodd;stroke:none"
         d="m 27.1758,184.10925 2.04065,14.31316 c 0.130296,0.91589 0.755922,1.68239 1.68197,1.68239 h 16.345583 c 0.924351,0 1.551674,-0.7665 1.681759,-1.68239 l 2.040863,-14.31316 -12.189258,-1.89067 z" /></g><g
       transform="translate(-41.790771,-0.00707245)"
       id="g20"><path
         id="path22"
         style="fill:#6e3e0b;fill-opacity:1;fill-rule:evenodd;stroke:none"
         d="M 49.646027,1.9040462 C 47.98164,1.6926076 46.501358,2.9870872 46.501358,4.6758385 v 0.00466 c -1.291084,0.077965 -2.313957,1.1497736 -2.313957,2.4616231 h 6.949936 C 50.848362,6.565012 50.689461,5.9383245 50.689461,5.2847281 c 0,-1.8826037 1.316505,-3.5363994 3.298698,-4.4698665 0.786003,-0.37203005 1.678578,-0.62965528 2.633019,-0.74257604 -0.860592,-0.08749893 -1.761212,-0.08749893 -2.633019,0.0063558 -1.761429,0.192371 -3.401874,0.776051 -4.342121,1.82540594 z" /></g><g
       transform="translate(-25.701904,-205.30396)"
       id="g24"><path
         id="path26"
         style="fill:#4275ab;fill-opacity:1;fill-rule:evenodd;stroke:none"
         d="m 27.1758,217.07751 2.04065,14.31318 c 0.130296,0.91589 0.755922,1.68238 1.68197,1.68238 h 3.154208 c -0.924355,0 -1.550194,-0.76649 -1.681977,-1.68238 L 30.65394,219.59167 c -0.154022,-1.07499 -0.03496,-1.27375 0.69088,-1.27375 h 19.444063 l 0.177967,-1.24044 z" /></g><g
       transform="translate(-97.095947,-197.95665)"
       id="g28"><path
         id="path30"
         style="fill:#e6e6e6;fill-opacity:1;fill-rule:nonzero;stroke:none"
         d="m 115.53481,213.55943 h -0.3288 c -0.23241,0 -0.42078,-0.18853 -0.42078,-0.42138 0,-0.23264 0.18858,-0.42141 0.42078,-0.42141 h 0.3288 c 0.70678,0 1.28178,-0.57499 1.28178,-1.28173 v -1.70469 c 0,-0.23262 0.18833,-0.4214 0.42076,-0.4214 0.2324,0 0.42096,0.18878 0.42096,0.4214 v 1.70469 c 0,1.17158 -0.95253,2.12452 -2.1235,2.12452 z m -10.41832,0 h -0.32879 c -1.17097,0 -2.1235,-0.95294 -2.1235,-2.12436 v -1.70463 c 0,-0.23284 0.18833,-0.42162 0.42097,-0.42162 0.23241,0 0.42075,0.18878 0.42075,0.42162 v 1.70463 c 0,0.70658 0.575,1.28157 1.28178,1.28157 h 0.32879 c 0.23243,0 0.42076,0.18877 0.42076,0.42141 0,0.23285 -0.18833,0.42134 -0.42076,0.42134 z" /></g><g
       transform="translate(-139.85474,-243.73723)"
       id="g32"><path
         id="path34"
         style="fill:#f5df87;fill-opacity:1;fill-rule:evenodd;stroke:none"
         d="m 147.87529,259.59442 c 0,0.29093 0.23643,0.52796 0.52712,0.52796 h 9.03529 c 0.29068,0 0.52733,-0.23703 0.52733,-0.52796 v -1.35004 c 0,-0.29104 -0.23665,-0.5296 -0.52733,-0.5296 h -9.03529 c -0.29069,0 -0.52733,0.23856 -0.52733,0.5296 v 1.35004 z" /></g><g
       transform="translate(-139.8584,-243.73686)"
       id="g36"><path
         id="path38"
         style="fill:#d9a13f;fill-opacity:1;fill-rule:evenodd;stroke:none"
         d="m 147.879,258.24405 v 1.35001 c 0,0.29083 0.23645,0.52795 0.52711,0.52795 h 1.6678 c -0.29069,0 -0.52734,-0.23712 -0.52734,-0.52795 v -1.35001 c 0,-0.29111 0.23665,-0.52966 0.52734,-0.52966 h -1.6678 c -0.29066,0 -0.52711,0.23855 -0.52711,0.52966 z" /></g><g
       transform="translate(0,-124.41953)"
       id="g40"><path
         id="path42"
         style="fill:#81c6e6;fill-opacity:1;fill-rule:evenodd;stroke:none"
         d="M 1.4739358,136.1931 H 25.264744 c 0.810161,0 1.47393,-0.6646 1.47393,-1.47563 v -1.68726 c 0,-0.8125 -0.663769,-1.47563 -1.47393,-1.47563 H 1.4739364 c -0.81164088,0 -1.473924955908,0.66313 -1.473924955908,1.47563 v 1.68726 c 0,0.81103 0.662278595908,1.47563 1.473924955908,1.47563 z" /><path
         id="path44"
         style="fill:#349ecf;fill-opacity:1;fill-rule:evenodd;stroke:none"
         d="m 0,134.71747 c 0,0.81103 0.66227859,1.47563 1.473925,1.47563 h 2.5951 c -0.8116407,0 -1.4754059,-0.6646 -1.4754059,-1.47563 v -1.68726 c 0,-0.8125 0.6637645,-1.47563 1.4754059,-1.47563 h -2.5951 C 0.66228402,131.55458 0,132.21771 0,133.03021 Z" /></g></g></svg>