<svg xmlns="http://www.w3.org/2000/svg" width="16" height="16" viewBox="0 0 16 16">
  <path id="Store" d="M44,33.775a5.818,5.818,0,0,0-.829-2.992l-1.455-2.43A.727.727,0,0,0,41.091,28H30.909a.727.727,0,0,0-.622.364l-1.455,2.429A5.818,5.818,0,0,0,28,33.775v.3a2.676,2.676,0,0,0,1.455,2.389v5.353A2.182,2.182,0,0,0,31.636,44h8.727a2.182,2.182,0,0,0,2.182-2.182V36.465A2.676,2.676,0,0,0,44,34.076Zm-9.455,8.771V39.636h2.909v2.909Zm5.818,0H38.909V38.909a.727.727,0,0,0-.727-.727H33.818a.727.727,0,0,0-.727.727v3.636H31.636a.727.727,0,0,1-.727-.727V36.695a2.545,2.545,0,0,0,1.345-.625l.109-.105a2.545,2.545,0,0,0,3.636,0,2.545,2.545,0,0,0,3.636,0l.109.105a2.545,2.545,0,0,0,1.345.625v5.124A.727.727,0,0,1,40.364,42.545Zm2.182-8.469a1.16,1.16,0,0,1-.975,1.2,1.091,1.091,0,0,1-1.207-1.091.727.727,0,0,0-1.455,0,1.091,1.091,0,0,1-2.182,0,.727.727,0,0,0-1.455,0,1.091,1.091,0,0,1-2.182,0,.727.727,0,1,0-1.455,0,1.093,1.093,0,0,1-1.211,1.084,1.16,1.16,0,0,1-.971-1.189v-.3a4.364,4.364,0,0,1,.622-2.247l1.244-2.073h9.36l1.244,2.073a4.364,4.364,0,0,1,.622,2.247Z" transform="translate(-28 -28)" fill="#fff" opacity="0.4"/>
</svg>
