<?xml version="1.0" encoding="UTF-8" standalone="no"?>
<svg
   xmlns:dc="http://purl.org/dc/elements/1.1/"
   xmlns:cc="http://creativecommons.org/ns#"
   xmlns:rdf="http://www.w3.org/1999/02/22-rdf-syntax-ns#"
   xmlns:svg="http://www.w3.org/2000/svg"
   xmlns="http://www.w3.org/2000/svg"
   viewBox="0 0 45.333332 45.333332"
   height="45.333332"
   width="45.333332"
   xml:space="preserve"
   id="svg2"
   version="1.1"><metadata
     id="metadata8"><rdf:RDF><cc:Work
         rdf:about=""><dc:format>image/svg+xml</dc:format><dc:type
           rdf:resource="http://purl.org/dc/dcmitype/StillImage" /></cc:Work></rdf:RDF></metadata><defs
     id="defs6" /><g
     transform="scale(1.3333333)"
     id="g10"><g
       transform="rotate(-60,19.354036,7.3586973)"
       id="g12"><path
         id="path14"
         style="fill:#fab03c;fill-opacity:1;fill-rule:nonzero;stroke:none"
         d="m 9.893611,0 c 1.311974,0 2.574014,0.25103539 3.786119,0.75310618 1.212106,0.50207082 2.282013,1.21695922 3.20972,2.14466522 0.927704,0.9277057 1.642592,1.9976115 2.144663,3.2097177 0.502071,1.2121062 0.753107,2.4741473 0.753109,3.7861219 -2e-6,1.311974 -0.251038,2.574014 -0.753109,3.786119 -0.502071,1.212106 -1.216959,2.282013 -2.144665,3.20972 -0.927707,0.927704 -1.997612,1.642592 -3.209718,2.144663 -1.212105,0.502071 -2.474145,0.753107 -3.786119,0.753109 C 8.5816364,19.78722 7.3195958,19.536184 6.1074896,19.034113 4.8953829,18.532042 3.8254771,17.817154 2.8977714,16.889448 1.9700654,15.961741 1.255177,14.891836 0.75310618,13.67973 0.25103539,12.467625 0,11.205585 0,9.893611 0,8.5816364 0.25103539,7.3195958 0.75310618,6.1074896 1.255177,4.8953829 1.9700654,3.8254771 2.8977714,2.8977714 3.8254771,1.9700654 4.8953829,1.255177 6.1074891,0.75310618 7.3195953,0.25103539 8.5816364,0 9.893611,0 Z" /></g><g
       transform="translate(6.9238281,6.9238529)"
       id="g16"><path
         id="path18"
         style="fill:#f6cb43;fill-opacity:1;fill-rule:nonzero;stroke:none"
         d="M 0.10105151,11.297089 C -0.20365645,9.1784248 0.17386603,6.9458423 1.3271472,4.9483671 3.5528305,1.0934963 7.9810705,-0.69689369 12.104401,0.24867901 12.409091,2.3673449 12.031594,4.5999603 10.878439,6.5974336 9.0459652,9.7712717 5.7201176,11.545663 2.3010356,11.545822 1.5673745,11.545857 0.82951552,11.464144 0.10105151,11.297089 Z" /></g><g
       transform="rotate(30,-44.081714,32.24379)"
       id="g20"><path
         id="path22"
         style="fill:#f6cb43;fill-opacity:1;fill-rule:nonzero;stroke:none"
         d="M 0,4.2872314 V 0.98936105 C 0,0.32978702 0.32978702,0 0.98936105,0 1.6489351,0 1.9787221,0.32978702 1.9787221,0.98936105 V 4.2872314 c 0,0.6595741 -0.329787,0.9893609 -0.98936105,0.9893609 C 0.32978702,5.2765923 0,4.9468055 0,4.2872314 Z" /></g><g
       transform="rotate(180,8.916748,16.839182)"
       id="g24"><path
         id="path26"
         style="fill:#f6cb43;fill-opacity:1;fill-rule:nonzero;stroke:none"
         d="M 0,4.2872314 V 0.98936105 C 0,0.32978702 0.32978702,0 0.98936105,0 1.6489351,0 1.9787221,0.32978702 1.9787221,0.98936105 V 4.2872314 c 0,0.6595741 -0.329787,0.9893609 -0.98936105,0.9893609 C 0.32978702,5.2765923 0,4.9468055 0,4.2872314 Z" /></g><g
       transform="rotate(150,8.911417,18.963331)"
       id="g28"><path
         id="path30"
         style="fill:#f6cb43;fill-opacity:1;fill-rule:nonzero;stroke:none"
         d="M 0,4.2872314 V 0.98936105 C 0,0.32978702 0.32978702,0 0.98936105,0 1.6489351,0 1.9787221,0.32978702 1.9787221,0.98936105 V 4.2872314 c 0,0.6595741 -0.329787,0.9893609 -0.98936105,0.9893609 C 0.32978702,5.2765923 0,4.9468055 0,4.2872314 Z" /></g><g
       transform="rotate(120,8.9052585,21.416113)"
       id="g32"><path
         id="path34"
         style="fill:#f6cb43;fill-opacity:1;fill-rule:nonzero;stroke:none"
         d="M 0,4.2872314 V 0.98936105 C 0,0.32978702 0.32978702,0 0.98936105,0 1.6489351,0 1.9787221,0.32978702 1.9787221,0.98936105 V 4.2872314 c 0,0.6595741 -0.329787,0.9893609 -0.98936105,0.9893609 C 0.32978702,5.2765923 0,4.9468055 0,4.2872314 Z" /></g><g
       transform="rotate(90,8.8967471,24.766583)"
       id="g36"><path
         id="path38"
         style="fill:#f6cb43;fill-opacity:1;fill-rule:nonzero;stroke:none"
         d="M 0,4.2872314 V 0.98936105 C 0,0.32978702 0.32978702,0 0.98936105,0 1.6489351,0 1.9787221,0.32978702 1.9787221,0.98936105 V 4.2872314 c 0,0.6595741 -0.329787,0.9893609 -0.98936105,0.9893609 C 0.32978702,5.2765923 0,4.9468055 0,4.2872314 Z" /></g><g
       transform="rotate(60,8.8820502,30.56984)"
       id="g40"><path
         id="path42"
         style="fill:#f6cb43;fill-opacity:1;fill-rule:nonzero;stroke:none"
         d="M 0,4.2872314 V 0.98936105 C 0,0.32978702 0.32978702,0 0.98936105,0 1.6489351,0 1.9787221,0.32978702 1.9787221,0.98936105 V 4.2872314 c 0,0.6595741 -0.329787,0.9893609 -0.98936105,0.9893609 C 0.32978702,5.2765923 0,4.9468055 0,4.2872314 Z" /></g><g
       transform="rotate(60,-15.679928,16.388937)"
       id="g44"><path
         id="path46"
         style="fill:#f6cb43;fill-opacity:1;fill-rule:nonzero;stroke:none"
         d="M 0,4.2872314 V 0.98936105 C 0,0.32978702 0.32978702,0 0.98936105,0 1.6489351,0 1.9787221,0.32978702 1.9787221,0.98936105 V 4.2872314 c 0,0.6595741 -0.329787,0.9893609 -0.98936105,0.9893609 C 0.32978702,5.2765923 0,4.9468055 0,4.2872314 Z" /></g><g
       transform="rotate(-150,12.704013,0.51749024)"
       id="g48"><path
         id="path50"
         style="fill:#f6cb43;fill-opacity:1;fill-rule:nonzero;stroke:none"
         d="M 0,4.2872314 V 0.98936105 C 0,0.32978702 0.32978702,0 0.98936105,0 1.6489351,0 1.9787221,0.32978702 1.9787221,0.98936105 V 4.2872314 c 0,0.6595741 -0.329787,0.9893609 -0.98936105,0.9893609 C 0.32978702,5.2765923 0,4.9468055 0,4.2872314 Z" /></g><g
       transform="translate(15.829834)"
       id="g52"><path
         id="path54"
         style="fill:#f6cb43;fill-opacity:1;fill-rule:nonzero;stroke:none"
         d="M 0,4.2872314 V 0.98936105 C 0,0.32978702 0.32978702,0 0.98936105,0 1.6489351,0 1.9787221,0.32978702 1.9787221,0.98936105 V 4.2872314 c 0,0.6595741 -0.329787,0.9893609 -0.98936105,0.9893609 C 0.32978702,5.2765923 0,4.9468055 0,4.2872314 Z" /></g><g
       transform="rotate(-30,8.9042286,-12.719588)"
       id="g56"><path
         id="path58"
         style="fill:#f6cb43;fill-opacity:1;fill-rule:nonzero;stroke:none"
         d="M 0,4.2872314 V 0.98936105 C 0,0.32978702 0.32978702,0 0.98936105,0 1.6489351,0 1.9787221,0.32978702 1.9787221,0.98936105 V 4.2872314 c 0,0.6595741 -0.329787,0.9893609 -0.98936105,0.9893609 C 0.32978702,5.2765923 0,4.9468055 0,4.2872314 Z" /></g><g
       transform="rotate(-60,8.9041867,3.1102419)"
       id="g60"><path
         id="path62"
         style="fill:#f6cb43;fill-opacity:1;fill-rule:nonzero;stroke:none"
         d="M 0,4.2872314 V 0.98936105 C 0,0.32978702 0.32978702,0 0.98936105,0 1.6489351,0 1.9787221,0.32978702 1.9787221,0.98936105 V 4.2872314 c 0,0.6595741 -0.329787,0.9893609 -0.98936105,0.9893609 C 0.32978702,5.2765923 0,4.9468055 0,4.2872314 Z" /></g><g
       transform="rotate(-90,8.9042626,8.9042625)"
       id="g64"><path
         id="path66"
         style="fill:#f6cb43;fill-opacity:1;fill-rule:nonzero;stroke:none"
         d="M 0,4.2872314 V 0.98936105 C 0,0.32978702 0.32978702,0 0.98936105,0 1.6489351,0 1.9787221,0.32978702 1.9787221,0.98936105 V 4.2872314 c 0,0.6595741 -0.329787,0.9893609 -0.98936105,0.9893609 C 0.32978702,5.2765923 0,4.9468055 0,4.2872314 Z" /></g></g></svg>